<?xml version="1.0" standalone="no"?>
<!DOCTYPE svg PUBLIC "-//W3C//DTD SVG 20010904//EN"
 "http://www.w3.org/TR/2001/REC-SVG-20010904/DTD/svg10.dtd">
<svg version="1.0" xmlns="http://www.w3.org/2000/svg"
 width="414.000000pt" height="414.000000pt" viewBox="0 0 414.000000 414.000000"
 preserveAspectRatio="xMidYMid meet">
<metadata>
Created by potrace 1.11, written by Peter Selinger 2001-2013
</metadata>
<g transform="translate(0.000000,414.000000) scale(0.100000,-0.100000)"
fill="#000000" stroke="none">
<path d="M0 2070 l0 -2070 2070 0 2070 0 0 2070 0 2070 -2070 0 -2070 0 0
-2070z m796 785 c12 -19 15 -41 12 -85 -5 -67 -19 -88 -70 -104 l-33 -11 -6
-560 c-6 -607 -9 -642 -63 -737 -32 -55 -99 -113 -158 -134 -24 -9 -86 -18
-138 -21 -82 -4 -104 -2 -163 19 -87 30 -111 60 -85 110 9 18 20 44 24 58 16
61 50 74 137 53 55 -13 71 -14 97 -3 67 28 65 4 68 628 3 522 2 565 -14 583
-9 10 -25 19 -35 19 -10 0 -31 11 -46 24 -24 21 -28 32 -28 78 0 35 6 64 18
81 l17 27 225 0 225 0 16 -25z m621 -304 c68 -34 102 -65 140 -130 l27 -46 6
-270 c5 -260 6 -270 25 -273 51 -7 62 -13 75 -39 7 -16 14 -46 15 -68 3 -34
-2 -45 -33 -77 l-36 -38 -99 0 c-104 0 -147 13 -167 50 -11 20 -40 28 -40 10
0 -5 -23 -21 -51 -36 -46 -23 -63 -26 -159 -26 -94 0 -114 3 -155 23 -50 25
-120 97 -137 139 -5 14 -10 66 -10 116 -1 112 20 162 93 220 78 62 167 90 352
109 l57 6 0 49 c0 77 -45 109 -135 95 -49 -7 -78 -31 -100 -81 -17 -40 -66
-58 -142 -52 -64 6 -85 23 -85 70 0 104 58 184 175 242 71 35 74 36 198 36
120 0 130 -2 186 -29z m1074 -1 c20 -14 53 -38 73 -54 l36 -28 32 32 c58 57
124 80 229 80 80 0 99 -3 147 -27 57 -29 104 -80 137 -148 17 -35 20 -70 25
-305 l5 -265 30 -3 c17 -1 40 -5 52 -7 36 -8 56 -100 33 -159 -18 -48 -52 -56
-252 -56 -163 0 -186 2 -215 19 -25 16 -33 29 -38 64 -4 24 -2 62 4 85 10 37
16 42 58 54 l46 13 -2 200 c-1 206 -9 258 -41 275 -24 13 -71 13 -124 -1 -37
-9 -46 -17 -64 -55 -20 -41 -22 -60 -22 -234 l0 -189 38 -7 c61 -11 72 -27 72
-106 0 -54 -4 -72 -20 -88 -29 -29 -51 -32 -239 -28 l-173 3 -24 28 c-26 31
-33 102 -14 152 10 26 14 29 64 40 l28 6 -3 220 -4 221 -30 25 c-26 23 -34 25
-89 19 -70 -7 -110 -38 -121 -92 -3 -19 -6 -113 -7 -210 -1 -195 -1 -194 64
-194 30 0 40 -5 57 -34 22 -35 27 -95 11 -126 -5 -10 -25 -28 -44 -39 -31 -19
-48 -21 -220 -21 -238 0 -255 7 -256 112 0 84 12 108 54 108 18 0 39 6 45 14
9 10 11 80 9 251 -3 252 -4 254 -55 255 -40 0 -53 25 -53 106 0 110 6 114 165
114 131 0 185 -13 185 -46 0 -22 28 -29 48 -10 10 8 38 27 63 41 40 22 53 24
154 22 99 -2 114 -5 146 -27z m1415 14 c92 -26 98 -36 102 -154 4 -113 -6
-151 -44 -169 -31 -14 -87 -14 -136 0 -40 10 -45 20 -50 89 l-3 35 -58 3 c-63
3 -107 -15 -107 -44 0 -24 39 -74 58 -74 9 0 30 -7 45 -15 16 -8 46 -19 67
-25 111 -30 191 -85 240 -165 21 -35 24 -52 24 -130 0 -88 -1 -91 -38 -148
-65 -98 -150 -147 -271 -158 -116 -10 -280 5 -332 30 -51 25 -57 46 -51 184 4
125 14 137 110 137 60 0 72 -3 94 -25 18 -18 24 -34 22 -60 -3 -45 18 -66 73
-72 51 -5 113 17 128 46 26 48 -47 121 -137 136 -46 7 -131 42 -183 73 -79 48
-120 163 -99 270 20 96 79 168 184 222 57 29 65 30 184 30 83 0 142 -5 178
-16z"/>
<path d="M1231 2019 c-116 -23 -151 -50 -151 -120 0 -61 12 -69 100 -69 73 0
82 2 110 28 26 22 32 37 37 84 9 86 -3 95 -96 77z"/>
</g>
</svg>
